# AST/ASF file generated using VICON BodyLanguage
# -----------------------------------------------
:version 1.10
:name VICON
:units
  mass 1.0
  length 0.45
  angle deg
:documentation
   .ast/.asf automatically generated from VICON data using
   VICON BodyBuilder and BodyLanguage model FoxedUp or BRILLIANT.MOD
:root
   order TX TY TZ RX RY RZ
   axis XYZ
   position 0 0 0  
   orientation 0 0 0 
:bonedata
  begin
     id 1 
     name lhipjoint
     direction 0.577973 -0.728611 0.367523 
     length 2.48544 
     axis 0 0 0  XYZ
  end
  begin
     id 2 
     name lfemur
     direction 0.34202 -0.939693 0  
     length 7.1921  
     axis 0 0 20  XYZ
    dof rx ry rz
    limits (-160.0 20.0)
           (-70.0 70.0)
           (-60.0 70.0)
  end
  begin
     id 3 
     name ltibia
     direction 0.34202 -0.939693 0   
     length 7.71059   
     axis 0 0 20   XYZ
    dof rx
    limits (-10.0 170.0)
  end
  begin
     id 4 
     name lfoot
     direction 0.089538 -0.246004 0.965124   
     length 2.19909   
     axis -90 7.62852e-016 20   XYZ
    dof rx rz
    limits (-45.0 90.0)
           (-70.0 20.0)
  end
  begin
     id 5 
     name ltoes
     direction 1.53544e-011 -4.21829e-011 1   
     length 1.10116   
     axis -90 7.62852e-016 20   XYZ
    dof rx
    limits (-90.0 20.0)
  end
  begin
     id 6 
     name rhipjoint
     direction -0.554414 -0.743062 0.374812   
     length 2.4371  
     axis 0 0 0  XYZ 
  end
  begin
     id 7 
     name rfemur
     direction -0.34202 -0.939693 0   
     length 7.47254   
     axis 0 0 -20   XYZ
    dof rx ry rz
    limits (-160.0 20.0)
           (-70.0 70.0)
           (-70.0 60.0)
  end
  begin
     id 8 
     name rtibia
     direction -0.34202 -0.939693 0   
     length 7.65855   
     axis 0 0 -20   XYZ
    dof rx
    limits (-10.0 170.0)
 end
 begin
     id 9 
     name rfoot
     direction -0.133779 -0.367555 0.92033   
     length 2.43006  
     axis -90 -7.62852e-016 -20   XYZ
    dof rx rz
    limits (-45.0 90.0)
           (-20.0 70.0)
  end
  begin
     id 10 
     name rtoes
     direction -1.53563e-011 -4.21889e-011 1   
     length 1.19625   
     axis -90 -7.62852e-016 -20   XYZ
    dof rx
    limits (-90.0 20.0)
  end
  begin
     id 11 
     name lowerback
     direction 0.0249066 0.998043 -0.0573585   
     length 2.08485   
     axis 0 0 0   XYZ
    dof rx ry rz
    limits (-20.0 45.0)
           (-30.0 30.0)
           (-30.0 30.0)
  end
  begin
     id 12 
     name upperback
     direction 0.0237884 0.999673 0.00943178   
     length 2.08515   
     axis 0 0 0   XYZ
    dof rx ry rz
    limits (-20.0 45.0)
           (-30.0 30.0)
           (-30.0 30.0)
  end
  begin
     id 13 
     name thorax
     direction 0.0106671 0.999301 0.0358174   
     length 2.09037   
     axis 0 0 0   XYZ
    dof rx ry rz
    limits (-20.0 45.0)
           (-30.0 30.0)
           (-30.0 30.0)
  end
  begin
     id 14 
     name lowerneck
     direction -0.0580016 0.987052 0.149546   
     length 1.84454   
     axis 0 0 0   XYZ
    dof rx ry rz
    limits (-20.0 45.0)
           (-30.0 30.0)
           (-30.0 30.0)
  end
  begin
     id 15 
     name upperneck
     direction 0.079456 0.981963 -0.171567   
     length 1.88141   
     axis 0 0 0   XYZ
    dof rx ry rz
    limits (-20.0 45.0)
           (-30.0 30.0)
           (-30.0 30.0)
  end
  begin
     id 16
     name head
     direction 0.0262167 0.9967 -0.0768276  
     length 1.89541  
     axis 0 0 0   XYZ
    dof rx ry rz
    limits (-20.0 45.0)
           (-30.0 30.0)
           (-30.0 30.0)
  end
  begin
     id 17 
     name lclavicle
     direction 0.946135 0.322134 -0.0325326  
     length 3.949  
     axis 0 0 0   XYZ
    dof ry rz
    limits (-20.0 10.0)
           (0.0 20.0)
  end
  begin
     id 18 
     name lhumerus
     direction 1 -4.48964e-011 1.94005e-028   
     length 5.10995   
     axis 180 -30 -90   XYZ
    dof rx ry rz
    limits (-60.0 90.0)
           (-90.0 90.0)
           (-90.0 90.0)
  end
  begin
     id 19
     name lradius
     direction 1 -4.48976e-011 2.87852e-027   
     length 3.21207   
     axis 180 -30 -90   XYZ
    dof rx
    limits (-10.0 170.0)
  end
  begin
     id 20
     name lwrist
     direction 1 -4.48963e-011 1.9975e-027   
     length 1.60604   
     axis 2.96054e-016 90 90   XYZ
    dof ry
    limits (-180.0 0.0)
 end
  begin
     id 21 
     name lhand
     direction 1 -4.48919e-011 4.00227e-027   
     length 0.63349   
     axis -2.5488e-015 90 90   XYZ
    dof rx rz
    limits (-90.0 90.0)
           (-45.0 45.0)
  end
  begin
     id 22 
     name lfingers
     direction 1 -4.49037e-011 7.9652e-027   
     length 0.510736   
     axis -5.0975e-015 90 90   XYZ
    dof rx
    limits (0.0 90.0)
  end
  begin
     id 23
     name lthumb
     direction 0.707107 -6.34922e-011 0.707107   
     length 0.733318   
     axis -90 45 -4.48553e-014   XYZ
    dof rx rz
    limits (-45.0 45.0)
           (-45.0 45.0)
  end
  begin
     id 24 
     name rclavicle
     direction -0.940085 0.328911 -0.0897654   
     length 3.93848  
     axis 0 0 0   XYZ 
    dof ry rz
    limits (-10.0 20.0)
           (-20.0 0.0)
  end
  begin
     id 25 
     name rhumerus
     direction -1 -4.48958e-011 3.02044e-027  
     length 5.25109   
     axis 180 30 90   XYZ
    dof rx ry rz
    limits (-90.0 60.0)
           (-90.0 90.0)
           (-90.0 90.0)
  end
  begin
     id 26 
     name rradius
     direction -1 -4.4897e-011 9.78352e-028   
     length 3.28364   
     axis 180 30 90   XYZ
    dof rx
    limits (-10.0 170.0)
  end
  begin
     id 27 
     name rwrist
     direction -1 -4.48943e-011 1.99918e-027   
     length 1.64182   
     axis 2.96054e-016 -90 -90   XYZ
    dof ry
    limits (-180.0 0.0)
  end
  begin
     id 28
     name rhand
     direction -1 -4.49024e-011 3.98478e-027   
     length 0.599745   
     axis -2.5488e-015 -90 -90   XYZ
    dof rx rz
    limits (-90.0 90.0)
           (-45.0 45.0)
  end
  begin
     id 29
     name rfingers
     direction -1 -4.48914e-011 8.00621e-027   
     length 0.48353   
     axis -5.0975e-015 -90 -90   XYZ
    dof rx
    limits (0.0 90.0)
  end
  begin
     id 30
     name rthumb
     direction -0.707107 -6.34992e-011 0.707107   
     length 0.694255   
     axis -90 -45 4.48553e-014   XYZ
    dof rx rz
    limits (-45.0 45.0)
           (-45.0 45.0)
  end
:hierarchy
  begin
    root lhipjoint rhipjoint lowerback
    lhipjoint lfemur
    lfemur ltibia
    ltibia lfoot
    lfoot ltoes
    rhipjoint rfemur
    rfemur rtibia
    rtibia rfoot
    rfoot rtoes
    lowerback upperback
    upperback thorax
    thorax lowerneck lclavicle rclavicle
    lowerneck upperneck
    upperneck head
    lclavicle lhumerus
    lhumerus lradius
    lradius lwrist
    lwrist lhand lthumb
    lhand lfingers
    rclavicle rhumerus
    rhumerus rradius
    rradius rwrist
    rwrist rhand rthumb
    rhand rfingers
  end

#!OML:ASF E:\CV Data\Top Level 1\Subject 1\Session 1\player.ASF
:FULLY-SPECIFIED
:DEGREES
295
root 5.46104 16.1872 -6.28962 -152.694 -163.404 -185.682
lowerback 26.2488 5.89878 4.86055
upperback 5.06511 9.06722 3.21005
thorax -8.58369 4.11779 -2.12391
lowerneck -13.0602 -12.7303 -15.968
upperneck -14.5566 -14.0873 21.9156
head 0.757013 -6.74122 8.47413
rclavicle 6.20208e-014 9.54166e-015
rhumerus 50.3022 -0.0950752 -81.1153
rradius 32.0025
rwrist -20.9885
rhand -27.9142 -5.56935
rfingers 7.12502
rthumb -1.30302 -35.5451
lclavicle 6.20208e-014 9.54166e-015
lhumerus 8.67687 -29.342 86.5159
lradius 81.9936
lwrist 4.37688
lhand -6.43897 32.914
lfingers 7.12502
lthumb 19.4103 61.9652
rfemur -18.5 -25.756 28.4022
rtibia 52.5518
rfoot -16.509 -7.25834
rtoes -22.027
lfemur -70.4414 -4.94816 -12.4026
ltibia 47.9878
lfoot -2.03598 -23.1879
ltoes 8.43359
296
root 5.46248 16.1976 -6.28312 -152.403 -163.231 -185.728
lowerback 26.2529 5.92252 4.79157
upperback 5.09326 9.07175 3.18083
thorax -8.55939 4.12176 -2.11789
lowerneck -12.9365 -12.7435 -16.0729
upperneck -14.7738 -14.0868 21.9767
head 0.689763 -6.75108 8.52516
rclavicle 5.40694e-014 -6.36111e-014
rhumerus 49.4639 -0.0416591 -81.2472
rradius 31.531
rwrist -20.7262
rhand -27.8484 -5.39976
rfingers 7.12502
rthumb -1.23951 -35.3759
lclavicle 5.40694e-014 -6.36111e-014
lhumerus 7.64811 -29.5988 87.2019
lradius 81.7941
lwrist 4.30922
lhand -6.68643 32.9224
lfingers 7.12502
lthumb 19.1724 61.9973
rfemur -18.7165 -25.866 28.4779
rtibia 52.3524
rfoot -16.521 -7.17918
rtoes -21.9481
lfemur -70.5969 -4.74004 -12.4154
ltibia 47.828
lfoot -1.9275 -23.1858
ltoes 8.50613
297
root 5.46543 16.2073 -6.27874 -152.123 -163.047 -185.783
lowerback 26.2523 5.95164 4.7275
upperback 5.11981 9.08591 3.16629
thorax -8.53587 4.1302 -2.10121
lowerneck -12.8172 -12.7558 -16.1877
upperneck -14.9613 -14.088 22.0119
head 0.629649 -6.75966 8.56818
rclavicle 1.11319e-014 3.65764e-014
rhumerus 48.6498 -0.0556222 -81.4174
rradius 31.1172
rwrist -20.5478
rhand -27.8037 -5.16699
rfingers 7.12502
rthumb -1.19633 -35.1434
lclavicle 1.11319e-014 3.65764e-014
lhumerus 6.71037 -29.8301 87.8528
lradius 81.5595
lwrist 4.02273
lhand -6.73475 32.8681
lfingers 7.12502
lthumb 19.1259 61.9477
rfemur -18.9316 -25.9321 28.5483
rtibia 52.1791
rfoot -16.5292 -7.0599
rtoes -21.9204
lfemur -70.7494 -4.52007 -12.4308
ltibia 47.6754
lfoot -1.80387 -23.1922
ltoes 8.59816
298
root 5.46994 16.2161 -6.27636 -151.859 -162.855 -185.84
lowerback 26.2496 5.9839 4.67092
upperback 5.1453 9.10701 3.16041
thorax -8.5125 4.14176 -2.08118
lowerneck -12.7241 -12.7684 -16.2873
upperneck -15.111 -14.0936 22.0041
head 0.578882 -6.76799 8.59198
rclavicle 4.45278e-014 2.70347e-014
rhumerus 47.8473 -0.140742 -81.6193
rradius 30.8005
rwrist -20.5128
rhand -27.7944 -4.89281
rfingers 7.12502
rthumb -1.18732 -34.8692
lclavicle 4.45278e-014 2.70347e-014
lhumerus 5.87029 -30.0398 88.4627
lradius 81.3072
lwrist 3.65851
lhand -6.61578 32.784
lfingers 7.12502
lthumb 19.2403 61.8523
rfemur -19.1437 -25.9626 28.6063
rtibia 52.0337
rfoot -16.5417 -6.90153
rtoes -21.9129
lfemur -70.8976 -4.2986 -12.4519
ltibia 47.5302
lfoot -1.66867 -23.1993
ltoes 8.69903
299
root 5.47601 16.2237 -6.27597 -151.609 -162.656 -185.897
lowerback 26.2418 6.01853 4.62456
upperback 5.16985 9.13422 3.15959
thorax -8.48666 4.1561 -2.06263
lowerneck -12.644 -12.7793 -16.3741
upperneck -15.2354 -14.1007 21.9679
head 0.533354 -6.7756 8.60304
rclavicle 1.43125e-014 -7.95139e-015
rhumerus 47.0493 -0.291947 -81.835
rradius 30.601
rwrist -20.6315
rhand -27.8138 -4.61111
rfingers 7.12502
rthumb -1.2061 -34.5874
lclavicle 1.43125e-014 -7.95139e-015
lhumerus 5.11779 -30.2307 89.0371
lradius 81.0701
lwrist 3.38047
lhand -6.40572 32.7034
lfingers 7.12502
lthumb 19.4423 61.7514
rfemur -19.3568 -25.9597 28.6506
rtibia 51.92
rfoot -16.5668 -6.73522
rtoes -21.9612
lfemur -71.0437 -4.07854 -12.4805
ltibia 47.3927
lfoot -1.52918 -23.206
ltoes 8.79857
300
root 5.48354 16.23 -6.2775 -151.379 -162.452 -185.948
lowerback 26.2351 6.05527 4.58828
upperback 5.19339 9.16706 3.15966
thorax -8.46081 4.17283 -2.05048
lowerneck -12.5859 -12.7879 -16.4381
upperneck -15.3331 -14.1081 21.9031
head 0.493822 -6.78197 8.59934
rclavicle -4.6118e-014 -2.8625e-014
rhumerus 46.2461 -0.491659 -82.0332
rradius 30.5292
rwrist -20.9048
rhand -27.8954 -4.37391
rfingers 7.12502
rthumb -1.28493 -34.3498
lclavicle -4.6118e-014 -2.8625e-014
lhumerus 4.45876 -30.4255 89.5669
lradius 80.8563
lwrist 3.33989
lhand -6.20259 32.6609
lfingers 7.12502
lthumb 19.6376 61.6891
rfemur -19.5658 -25.926 28.6766
rtibia 51.8379
rfoot -16.6219 -6.57271
rtoes -22.0145
lfemur -71.185 -3.8648 -12.5188
ltibia 47.2631
lfoot -1.38785 -23.2089
ltoes 8.89944
301
root 5.49244 16.2347 -6.28098 -151.166 -162.244 -185.994
lowerback 26.227 6.09269 4.56085
upperback 5.21574 9.2032 3.15985
thorax -8.43402 4.19094 -2.04392
lowerneck -12.5394 -12.7917 -16.4811
upperneck -15.4187 -14.1119 21.8196
head 0.455172 -6.78608 8.58591
rclavicle 3.81667e-014 4.92986e-014
rhumerus 45.4423 -0.728082 -82.2029
rradius 30.5639
rwrist -21.264
rhand -27.9964 -4.20272
rfingers 7.12502
rthumb -1.38243 -34.178
lclavicle 3.81667e-014 4.92986e-014
lhumerus 3.90069 -30.6398 90.0409
lradius 80.6724
lwrist 3.6604
lhand -6.08269 32.6954
lfingers 7.12502
lthumb 19.7529 61.7118
rfemur -19.7744 -25.8653 28.686
rtibia 51.7879
rfoot -16.7131 -6.41496
rtoes -22.0512
lfemur -71.3233 -3.66039 -12.5661
ltibia 47.1415
lfoot -1.25466 -23.2058
ltoes 8.98237
302
root 5.50263 16.2379 -6.28635 -150.975 -162.034 -186.031
lowerback 26.2248 6.13014 4.53972
upperback 5.23762 9.24159 3.16159
thorax -8.41003 4.2098 -2.04046
lowerneck -12.5031 -12.7902 -16.5121
upperneck -15.4946 -14.1094 21.7304
head 0.418298 -6.78652 8.56879
rclavicle 1.38354e-013 -7.95139e-015
rhumerus 44.6417 -0.984641 -82.3281
rradius 30.6797
rwrist -21.6716
rhand -28.1209 -4.09728
rfingers 7.12502
rthumb -1.50271 -34.0717
lclavicle 1.38354e-013 -7.95139e-015
lhumerus 3.43377 -30.893 90.4592
lradius 80.5131
lwrist 4.34866
lhand -6.14774 32.7989
lfingers 7.12502
lthumb 19.6903 61.8216
rfemur -19.9767 -25.7867 28.6763
rtibia 51.7678
rfoot -16.8426 -6.26352
rtoes -22.0551
lfemur -71.4543 -3.46919 -12.6219
ltibia 47.0278
lfoot -1.12707 -23.1954
ltoes 9.04889
303
root 5.51413 16.2395 -6.29362 -150.805 -161.824 -186.06
lowerback 26.2285 6.16551 4.52327
upperback 5.25832 9.27947 3.16781
thorax -8.39039 4.22812 -2.03523
lowerneck -12.4789 -12.7818 -16.5344
upperneck -15.5636 -14.0974 21.638
head 0.382596 -6.78158 8.54977
rclavicle 4.45278e-014 -2.70347e-014
rhumerus 43.8463 -1.24446 -82.4056
rradius 30.8512
rwrist -22.1056
rhand -28.3149 -4.02649
rfingers 7.12502
rthumb -1.69005 -33.9995
lclavicle 4.45278e-014 -2.70347e-014
lhumerus 3.04635 -31.1888 90.8161
lradius 80.3857
lwrist 5.38617
lhand -6.39389 32.9743
lfingers 7.12502
lthumb 19.4537 62.0212
rfemur -20.1729 -25.6968 28.6504
rtibia 51.7766
rfoot -17.0127 -6.12012
rtoes -22.0209
lfemur -71.5794 -3.29307 -12.6833
ltibia 46.9232
lfoot -1.00809 -23.1785
ltoes 9.0911
304
root 5.52711 16.2393 -6.30276 -150.657 -161.623 -186.075
lowerback 26.2354 6.19357 4.5112
upperback 5.27951 9.31021 3.18192
thorax -8.37296 4.24295 -2.02198
lowerneck -12.4668 -12.7665 -16.5517
upperneck -15.6323 -14.0747 21.5452
head 0.346581 -6.77074 8.53071
rclavicle -1.1291e-013 0
rhumerus 43.0619 -1.50055 -82.4443
rradius 31.0656
rwrist -22.5466
rhand -28.5646 -3.97789
rfingers 7.12502
rthumb -1.93118 -33.9489
lclavicle -1.1291e-013 0
lhumerus 2.72717 -31.5305 91.1075
lradius 80.2958
lwrist 6.67534
lhand -6.81459 33.1899
lfingers 7.12502
lthumb 19.0491 62.2771
rfemur -20.365 -25.6102 28.6089
rtibia 51.8135
rfoot -17.2161 -5.98709
rtoes -21.9607
lfemur -71.7023 -3.14096 -12.7531
ltibia 46.8286
lfoot -0.89915 -23.1587
ltoes 9.08561
